<svg width="24" height="32" viewBox="0 0 24 32" fill="none" xmlns="http://www.w3.org/2000/svg">
<g clip-path="url(#clip0_9_2)">
<path d="M21.2642 16.2528C20.6377 17.6604 19.9925 19.117 19.7547 21.1698C19.7547 21.1736 19.7547 21.1811 19.7547 21.1849C19.3962 25.2906 18.6189 27.5623 18.0302 28.7434C17.3509 30.1056 16.6453 30.5887 16.2491 30.5887C15.7585 30.5887 15.3585 30.1887 15.3585 29.6981C15.3585 29.6717 15.3585 29.6415 15.3509 29.6151L14.2377 22.2113C14.1245 21.2264 13.2943 20.483 12.2981 20.483C11.0226 20.483 10.4377 21.5547 10.3509 22.283L9.24529 29.6113C9.24152 29.6377 9.23774 29.6679 9.23774 29.6943C9.23774 30.1849 8.83774 30.5849 8.34718 30.5849C7.46793 30.5849 5.45661 28.2868 4.83774 21.1811C4.83774 21.1773 4.83774 21.1698 4.83774 21.166C4.60001 19.1132 3.95095 17.6566 3.32831 16.249C2.67548 14.7773 2.05661 13.3887 2.05661 11.4641C2.05661 9.94338 2.90944 5.99622 6.81133 5.99622C7.86416 5.99622 8.57736 6.35093 9.33208 6.73206C9.40378 6.76603 14.5509 7.08678 15.2528 6.73206C16.0038 6.35471 16.717 5.99622 17.7774 5.99622C21.6793 5.99622 22.5321 9.94338 22.5321 11.4641C22.5321 13.3887 21.9132 14.7773 21.2604 16.249L21.2642 16.2528Z" fill="#164E63"/>
<path d="M22.6604 7.1698C21.5358 5.483 19.849 4.59244 17.7811 4.59244C16.3849 4.59244 15.449 5.06414 14.6226 5.47923C13.917 5.83395 13.2528 6.1698 12.3019 6.1698C11.3509 6.1698 10.7056 5.84904 9.95847 5.47546C9.13206 5.06414 8.19243 4.59621 6.8113 4.59621C4.74715 4.59621 3.06036 5.48678 1.93206 7.17357C1.12828 8.38112 0.645264 9.98866 0.645264 11.4717C0.645264 13.6943 1.32074 15.2151 2.03772 16.8302C2.61885 18.1396 3.22262 19.4943 3.43394 21.3207C4.12074 29.1962 6.42262 32.0038 8.34338 32.0038C9.58111 32.0038 10.6113 30.9962 10.6339 29.7962L11.7396 22.4641C11.7472 22.4075 11.8226 21.9019 12.2905 21.9019C12.5698 21.9019 12.8 22.1094 12.8377 22.4226L13.9434 29.7623C13.9698 31 15 32.0075 16.2377 32.0075C16.8868 32.0075 18.1396 31.6679 19.2792 29.3811C20.2151 27.5056 20.8453 24.7962 21.1471 21.3321C21.3622 19.4906 21.9622 18.1396 22.5471 16.8302C23.2641 15.2189 23.9396 13.6981 23.9396 11.4755C23.9396 9.99244 23.4604 8.38489 22.6566 7.17734L22.6604 7.1698ZM21 16.1358C20.366 17.5622 19.7094 19.0377 19.4641 21.1585C19.1094 25.2189 18.3472 27.4528 17.766 28.6151C17.1509 29.8528 16.517 30.3019 16.2415 30.3019C15.9094 30.3019 15.6415 30.0339 15.6415 29.7019C15.6415 29.6604 15.6415 29.6189 15.6302 29.5773L14.5207 22.1849C14.3887 21.0528 13.4339 20.2 12.2943 20.2C10.8302 20.2 10.1585 21.4302 10.0604 22.249L8.95847 29.5736C8.95092 29.6151 8.94715 29.6566 8.94715 29.7019C8.94715 30.0339 8.67923 30.3019 8.34715 30.3019C7.70187 30.3019 5.73583 28.1358 5.12451 21.1358C4.883 19.0377 4.2264 17.5622 3.58866 16.1321C2.94715 14.6906 2.34338 13.3283 2.34338 11.4641C2.34338 10.0226 3.14715 6.28678 6.8113 6.28678C7.79243 6.28678 8.44526 6.61131 9.20375 6.99244C9.27168 7.0264 9.92828 7.33583 10.2641 7.46791C11.1132 7.70942 11.9547 7.92074 12.8604 7.83772C13.9434 7.73583 14.5358 7.43017 15.1622 7.10942L15.3962 6.99244C16.1471 6.61885 16.7924 6.29055 17.7849 6.29055C21.449 6.29055 22.2528 10.0302 22.2528 11.4679C22.2528 13.3321 21.649 14.6906 21.0075 16.1321L21.2717 16.2528L21.0075 16.1358H21Z" fill="white"/>
<path d="M5.49811 3.31697C5.72075 3.29056 5.77735 2.99244 5.58113 2.88678L3.31698 1.65282L0.339617 0.0301794C0.1849 -0.056613 -0.00377891 0.0603681 -5.32604e-06 0.237727L0.0830135 3.62641L0.150938 6.46791C0.154712 6.70188 0.464146 6.77735 0.581127 6.57735C0.652825 6.45282 0.728297 6.33584 0.803768 6.21886C1.90943 4.56225 3.55471 3.55471 5.49811 3.32075V3.31697Z" fill="#164E63"/>
</g>
<defs>
<clipPath id="clip0_9_2">
<rect width="23.9434" height="32" fill="white"/>
</clipPath>
</defs>
</svg>
