<?xml version="1.0" standalone="no"?>
<!DOCTYPE svg PUBLIC "-//W3C//DTD SVG 20010904//EN"
 "http://www.w3.org/TR/2001/REC-SVG-20010904/DTD/svg10.dtd">
<svg version="1.0" xmlns="http://www.w3.org/2000/svg"
 width="256.000000pt" height="256.000000pt" viewBox="0 0 256.000000 256.000000"
 preserveAspectRatio="xMidYMid meet">
<metadata>
Created by potrace 1.14, written by Peter Selinger 2001-2017
</metadata>
<g transform="translate(0.000000,256.000000) scale(0.100000,-0.100000)"
fill="#000000" stroke="none">
<path d="M981 1724 c-67 -18 -115 -53 -140 -102 -46 -90 -35 -163 36 -242 l43
-48 -52 -32 c-149 -90 -203 -213 -144 -330 9 -18 16 -35 16 -37 0 -1 -79 -3
-175 -3 l-175 0 0 395 0 395 -60 0 -60 0 0 -439 c0 -242 3 -442 8 -445 4 -2
214 -5 467 -7 501 -2 524 0 637 57 53 27 53 27 115 -23 40 -33 44 -34 118 -31
l77 3 -92 73 -92 74 20 21 c11 12 33 43 49 69 l29 46 72 -144 72 -145 67 3 68
3 217 435 c119 239 217 438 217 443 1 4 -25 7 -57 7 l-59 0 -189 -386 c-104
-212 -192 -388 -195 -390 -4 -2 -94 171 -200 386 l-193 390 -58 0 c-32 0 -58
-2 -58 -5 0 -3 52 -109 116 -237 l116 -231 -16 -41 c-18 -47 -84 -156 -95
-156 -5 0 -299 235 -319 255 -2 2 15 13 37 25 63 32 118 86 137 136 15 39 15
52 5 101 -28 124 -170 196 -310 157z m150 -101 c30 -18 59 -67 59 -100 0 -34
-38 -81 -93 -112 -30 -17 -61 -31 -69 -31 -16 0 -80 64 -97 97 -25 49 -3 121
47 147 37 21 117 20 153 -1z m-64 -411 c32 -26 109 -89 171 -140 l113 -91 -33
-17 c-18 -9 -55 -23 -83 -30 -59 -16 -244 -18 -296 -4 -94 26 -143 95 -120
171 16 52 53 92 121 129 30 16 58 30 62 30 3 0 33 -22 65 -48z"/>
</g>
</svg>
